<?xml version="1.0" encoding="utf-8"?>
<!-- Generator: Adobe Illustrator 28.2.0, SVG Export Plug-In . SVG Version: 6.00 Build 0)  -->
<svg version="1.1" id="Layer_1" xmlns="http://www.w3.org/2000/svg" xmlns:xlink="http://www.w3.org/1999/xlink" x="0px" y="0px"
	 viewBox="0 0 595.28 72.87" style="enable-background:new 0 0 595.28 72.87;" xml:space="preserve">
<style type="text/css">
	.st0{fill:#FFFFFF;}
</style>
<g>
	<path class="st0" d="M558.12,44.1c-2.38-3.21-5.21-5.64-7.65-8.53c-3.6,0.33-7.17,0.66-10.79,1c-1.48-1.18-2.82-2.48-3.88-3.89
		c0.3-1.04,1.07-1.18,1.7-1.47c2.97-1.36,5.94-2.76,8.94-4.05c1.17-0.5,1.91-1.25,2.42-2.4c1.29-2.94,2.63-5.85,3.98-8.76
		c0.32-0.69,0.48-1.52,1.5-1.93c1.55,0.86,2.63,2.32,3.86,3.64c0.12,3.66-0.75,7.2-0.77,10.86c2.59,2.69,5.32,5.22,8.41,7.86
		c3.9-8.63,7.72-17.1,11.71-25.92c2.23,1.65,3.75,3.39,5.34,5.13c-1.15,11.49-2.3,22.94-3.48,34.66c3.01,2.95,6.08,5.98,9.17,8.99
		c1.33,1.29,2.45,2.73,3.25,4.4c0.28,0.58,0.68,1.13,0.53,1.86c-0.47,0.62-1.17,0.45-1.8,0.45c-2.88,0.02-5.76-0.03-8.64,0.02
		c-1.22,0.02-2.11-0.41-2.93-1.28c-2.25-2.37-4.55-4.7-6.89-7.11c-11.67,1.16-23.17,2.31-34.68,3.46c-1.83-1.56-3.4-3.17-5.19-5.21
		C540.92,51.7,549.52,48.13,558.12,44.1z"/>
	<g>
		<path class="st0" d="M7.57,22.9h13.41v42.33H7.57V22.9z"/>
		<path class="st0" d="M24.94,22.9h13.36c6.7,0,15.84,2.16,15.84,13.45c0,4.56-1.66,7.83-4.09,10.06l7.42,18.82H43.39l-4.86-13.91
			h-0.18v13.91H24.94V22.9z M39.34,41.61c2.11,0,3.06-1.46,3.06-3.27c0-1.81-0.99-3.22-3.06-3.22h-0.99v6.49H39.34z"/>
		<path class="st0" d="M58.87,22.9h13.36c6.7,0,15.84,2.16,15.84,13.45c0,4.56-1.66,7.83-4.09,10.06l7.42,18.82H77.32l-4.86-13.91
			h-0.18v13.91H58.87V22.9z M73.27,41.61c2.11,0,3.06-1.46,3.06-3.27c0-1.81-0.99-3.22-3.06-3.22h-0.99v6.49H73.27z"/>
		<path class="st0" d="M104.18,22.9h12.82l12.42,42.33h-14.49l-1.13-5.55h-7.47l-1.26,5.55H91.77L104.18,22.9z M111.65,49.03
			l-1.44-8.59h-0.09l-1.44,8.59H111.65z"/>
		<path class="st0" d="M134.47,37.28h-9.09V22.9h31.59v14.38h-9.09v27.94h-13.41V37.28z"/>
		<path class="st0" d="M160.48,22.9h13.41v42.33h-13.41V22.9z"/>
		<path class="st0" d="M195.31,22.26c10.21,0,18.18,9.53,18.18,21.81s-7.96,21.81-18.18,21.81c-10.21,0-18.18-9.53-18.18-21.81
			S185.09,22.26,195.31,22.26z M195.31,50.9c2.79,0,5.04-2.92,5.04-6.55c0-3.62-2.25-6.55-5.04-6.55c-2.79,0-5.04,2.92-5.04,6.55
			C190.27,47.98,192.52,50.9,195.31,50.9z"/>
		<path class="st0" d="M216.73,22.9h12.19l9.58,18.06l0.09-0.06V22.9h12.06v42.33h-12.19l-9.58-18.06l-0.09,0.06v18.01h-12.06V22.9z
			"/>
		<path class="st0" d="M265.33,22.9h12.82l12.42,42.33h-14.49l-1.13-5.55h-7.47l-1.26,5.55h-13.32L265.33,22.9z M272.79,49.03
			l-1.44-8.59h-0.09l-1.44,8.59H272.79z"/>
		<path class="st0" d="M292.82,22.9h13.41v27.3h10.08v15.02h-23.49V22.9z"/>
		<path class="st0" d="M338.99,37.28h-9.09V22.9h31.59v14.38h-9.09v27.94h-13.41V37.28z"/>
		<path class="st0" d="M365,22.9h13.36c6.7,0,15.84,2.16,15.84,13.45c0,4.56-1.67,7.83-4.09,10.06l7.42,18.82h-14.08l-4.86-13.91
			h-0.18v13.91H365V22.9z M379.4,41.61c2.12,0,3.06-1.46,3.06-3.27c0-1.81-0.99-3.22-3.06-3.22h-0.99v6.49H379.4z"/>
		<path class="st0" d="M410.31,22.9h12.82l12.42,42.33h-14.49l-1.12-5.55h-7.47l-1.26,5.55h-13.32L410.31,22.9z M417.78,49.03
			l-1.44-8.59h-0.09l-1.44,8.59H417.78z"/>
		<path class="st0" d="M429.8,22.9h14.49l4.82,22.45h0.09l5.13-22.45h13.09l-12.46,42.33h-12.69L429.8,22.9z"/>
		<path class="st0" d="M469.67,22.9h23.44v14.15h-10.03v2.28h8.1v10.06h-8.1v2.4h10.66v13.45h-24.07V22.9z"/>
		<path class="st0" d="M497.07,22.9h13.41v27.3h10.08v15.02h-23.49V22.9z"/>
	</g>
</g>
</svg>
